<svg xmlns="http://www.w3.org/2000/svg" id="icons" viewBox="0 0 340 340"><path d="M48.549,206.471s17.835,14.5,31.529,28.013L102.9,223.732S88.67,212.3,82.139,195.974Z" style="fill:#ffd6bb"/><path d="M80.078,234.484l7.435-3.5-1.7-5.554-4.3-4.358A3.344,3.344,0,0,1,82,215.96l8.312-5.687a64.208,64.208,0,0,1-8.173-14.3l-33.59,10.5S66.384,220.969,80.078,234.484Z" style="fill:#f4a28c"/><path d="M153.874,110.8h33.107a5.88,5.88,0,0,1,5.88,5.88v62.28a0,0,0,0,1,0,0h-29.29a9.7,9.7,0,0,1-9.7-9.7V110.8A0,0,0,0,1,153.874,110.8Z" style="fill:#9dddf4"/><path d="M169.064,60.41H146.476a24.041,24.041,0,0,0-24.04,24.041V236.828h14.3V86.177A11.466,11.466,0,0,1,148.2,74.711h20.862a7.151,7.151,0,0,0,7.151-7.15h0A7.151,7.151,0,0,0,169.064,60.41Z" style="fill:#d8d8d8"/><polygon points="10.519 238.316 10.519 328.711 110.985 328.711 10.519 238.316" style="fill:#6abacc"/><path d="M23.249,198.348l92.241,84.436H330.519v45.927H101.269A24.771,24.771,0,0,1,83.9,321.6L18.447,257.232a26.53,26.53,0,0,1-7.928-18.916V216.659a19.534,19.534,0,0,1,12.73-18.311Z" style="fill:#9dddf4"/><path d="M86.172,221.161a46.588,46.588,0,0,1,5.614-1.689,45.257,45.257,0,0,1,38.5,8.454l6.195,4.85a33.024,33.024,0,0,0,20.359,7.022H296.963a33.557,33.557,0,0,1,33.556,33.557v9.429H115.49L84.991,255.2Z" style="fill:#bfd6ef"/><path d="M110.1,236.828,99.053,225.894a16.416,16.416,0,0,0-23.833.7c-.085.1-.169.192-.253.29A17.568,17.568,0,0,0,72.4,233.76,16.164,16.164,0,0,0,77.6,248.1l11.345,10.385Z" style="fill:#bfd6ef"/><path d="M46.292,208.816s4.559,1.611,11.79-1.188l7.755,4.555a11.882,11.882,0,0,0,13.3-.858L93,200.569A9.546,9.546,0,0,0,95.1,187.735c-6.758-10.134-20.117-27.984-35.856-37.488L28.225,174.505S29.136,198.107,46.292,208.816Z" style="fill:#ffd6bb"/><path d="M94.9,252.39,82.348,239.8c-8.292-10.178-.176-17.718-.007-17.873A16.112,16.112,0,0,0,75.22,226.6c-.085.1-.169.192-.252.29A17.559,17.559,0,0,0,72.4,233.76,16.164,16.164,0,0,0,77.6,248.1l11.345,10.385L94.9,252.39Z" style="fill:#7babdb"/><path d="M330.509,273.008h0a33.505,33.505,0,0,0-14.325-27.153c1.361,22.385-20.838,26.6-32.844,27.256l-166.812-.1-9.33,2.275,8.293,7.5H330.519v-9.429C330.519,273.238,330.51,273.124,330.509,273.008Z" style="fill:#7babdb"/><path d="M88.944,258.484,110.1,236.828l20.234,20.034,38.181.227A21.911,21.911,0,0,1,190.291,279v3.785h-74.8Z" style="fill:#ffd6bb"/><path d="M115.872,270.469,94.9,252.39l-5.952,6.094,26.546,24.3h74.8V279a21.9,21.9,0,0,0-.834-5.982H122.73A10.5,10.5,0,0,1,115.872,270.469Z" style="fill:#f4a28c"/><path d="M15.349,185.985s-11.716-11.416-2.1-26.436S59.51,118.993,59.51,118.993l2.1,14.72,3.928,2.23a6.4,6.4,0,0,1,1.443,10.02L40.4,173.453a8.624,8.624,0,0,0,1.778,13.484c.078.044.158.087.238.13a3.99,3.99,0,0,1,1.512,5.614c-2.09,3.475-3.331,9.062,2.362,16.135C46.292,208.816,16.251,217.528,15.349,185.985Z" style="fill:#6f6f7f"/><path d="M267.7,11.28c-18.821,17.869-62.221,9.755-62.221,9.755V84.351a59.532,59.532,0,0,0,4.027,21.915c15.634,39.51,58.194,47.427,58.194,47.427s42.56-7.917,58.193-47.427a59.513,59.513,0,0,0,4.028-21.915V21.035S286.517,29.149,267.7,11.28Z" style="fill:#ffdc6c"/><path d="M267.7,11.28a34.638,34.638,0,0,1-10.378,6.61L205.475,69.732V84.351a61.127,61.127,0,0,0,2.283,16.759l80.156-80.156C280.238,19.281,272.993,16.31,267.7,11.28Z" style="fill:#ffedd2"/><path d="M215.032,117.35a72.011,72.011,0,0,0,7.649,10.308L323.922,26.764V21.9c-3.349.4-7.873.8-12.988.932Z" style="fill:#ffedd2"/><path d="M325.889,106.266a59.513,59.513,0,0,0,4.028-21.915V21.035s-43.4,8.114-62.221-9.755V153.693S310.256,145.776,325.889,106.266Z" style="fill:#fca742"/><path d="M205.475,54.972,238.052,22.4c-2.568.247-5.116.386-7.59.444L205.475,47.826Z" style="fill:#ffedd2"/><path d="M13.966,199.5a23.52,23.52,0,0,0-7.447,17.164V328.711a4,4,0,0,0,4,4H71.28a4,4,0,0,0,0-8H14.519v-65.8c.364.4.737.79,1.123,1.169l65.452,64.371a28.611,28.611,0,0,0,20.176,8.257H330.519a4,4,0,0,0,4-4V273.355A37.6,37.6,0,0,0,296.962,235.8H156.845a29.163,29.163,0,0,1-16.108-4.891V86.177a7.475,7.475,0,0,1,7.465-7.466h20.862a11.15,11.15,0,1,0,0-22.3H146.477a28.072,28.072,0,0,0-28.041,28.04V207.914a4,4,0,0,0,8,0V84.451a20.063,20.063,0,0,1,20.041-20.04h22.587a3.15,3.15,0,1,1,0,6.3H148.2a15.483,15.483,0,0,0-15.465,15.466V224.762a49.076,49.076,0,0,0-33.853-10.428,79.08,79.08,0,0,1-6.587-8.157l3.154-2.447a13.6,13.6,0,0,0,2.981-18.215c-1.422-2.132-3.193-4.679-5.236-7.443-.034-.047-.066-.094-.1-.139-6.27-8.467-15.207-19.025-25.518-26.829l2.282-2.36a10.4,10.4,0,0,0-2.343-16.28l-2.221-1.26-1.825-12.776a4,4,0,0,0-6.246-2.717c-1.523,1.062-37.418,26.168-47.346,41.681-8.306,12.98-3.128,24.777,1.541,30.235A35.944,35.944,0,0,0,13.966,199.5ZM326.519,324.711H101.27A20.656,20.656,0,0,1,86.7,318.749L21.252,254.38a22.671,22.671,0,0,1-6.733-16.064V216.659a15.534,15.534,0,0,1,3.844-10.229,21.6,21.6,0,0,0,3.134,2.784c5.094,3.715,11.114,4.7,16.071,4.7a40.022,40.022,0,0,0,8.732-.977,18.853,18.853,0,0,0,4.183.332c4.4,3.69,11.59,9.833,18.78,16.454a22.748,22.748,0,0,0-.813,3.418c-.054.347-.094.7-.129,1.042l-12.39-11.342a4,4,0,1,0-5.4,5.9l24.356,22.3.013.012,11.345,10.385,26.546,24.3a4,4,0,0,0,2.7,1.05H326.519ZM87.008,225.12a12.419,12.419,0,0,1,9.231,3.617l8.22,8.137L88.788,252.918l-1.3-1.187-7.2-6.59a12.106,12.106,0,0,1-3.938-10.762,14.258,14.258,0,0,1,1.806-5.065l.058-.067A12.146,12.146,0,0,1,87.008,225.12Zm40.508,34.585a4,4,0,0,0,2.79,1.157l38.182.227a17.955,17.955,0,0,1,17.8,17.695H117.044L94.692,258.323l.125-.128L110.143,242.5Zm.309-28.629,6.2,4.85c.15.118.3.228.457.343.011.007.021.016.032.024a37.194,37.194,0,0,0,22.336,7.5H296.962a29.59,29.59,0,0,1,29.557,29.557v5.429H194.285a25.969,25.969,0,0,0-25.75-25.695l-36.55-.217L112.91,233.985l-11.043-10.934c-.288-.285-.6-.54-.9-.806A41.148,41.148,0,0,1,127.825,231.076Zm-38.2-15.183c-2.124.56-3.673,1.087-4.422,1.359A19.986,19.986,0,0,0,73.443,222.7c-2.105-1.923-4.194-3.794-6.2-5.568a15.727,15.727,0,0,0,14.348-2.647l4.374-3.393Q87.68,213.525,89.63,215.893Zm-4.5-35.245a15.957,15.957,0,0,1-10.867,6.644,4,4,0,1,0,1.134,7.92,24.039,24.039,0,0,0,14.6-7.873c.637.92,1.243,1.807,1.782,2.616a5.566,5.566,0,0,1-1.229,7.455L76.684,208.164a7.842,7.842,0,0,1-8.821.57l-7.756-4.555a3.993,3.993,0,0,0-3.469-.281,20.253,20.253,0,0,1-5.114,1.293c-.051,0-.1.011-.153.017a13.043,13.043,0,0,1-2.788,0c-2.731-3.857-3.134-7.293-1.225-10.468a8.108,8.108,0,0,0,.872-6.311,7.9,7.9,0,0,0-3.963-4.91l-.13-.071a4.3,4.3,0,0,1-2.151-3.186,4.764,4.764,0,0,1,1.291-4.03l18.7-19.343C71.072,163.573,79.149,172.8,85.13,180.648ZM16.616,161.705c6.94-10.845,29.489-28.024,39.867-35.613l1.169,8.187a4,4,0,0,0,1.986,2.913l3.927,2.229a2.4,2.4,0,0,1,.542,3.762l-5.444,5.631-.021.021L37.526,170.672a12.71,12.71,0,0,0-3.456,10.751,12.265,12.265,0,0,0,6.149,9,.989.989,0,0,1,.282.2,15.943,15.943,0,0,0-.76,15.2c-3.988.283-9.4-.064-13.531-3.074-4.324-3.152-6.632-8.831-6.862-16.879a4.067,4.067,0,0,0-1.189-2.734C17.206,182.185,9.069,173.5,16.616,161.705Z" style="fill:#494456"/><path d="M173.369,85.293a4,4,0,0,0-4,4v17.445H153.875a4,4,0,0,0-4,4V169.2a13.713,13.713,0,0,0,13.7,13.7h29.29a4,4,0,0,0,4-4v-62.28a9.89,9.89,0,0,0-9.88-9.88h-9.613V89.293A4,4,0,0,0,173.369,85.293Zm15.493,31.325v8.5h-5.516a4,4,0,1,0,0,8h5.516v7.7H177.346a4,4,0,0,0,0,8h11.516v7.7h-5.516a4,4,0,0,0,0,8h5.516V174.9h-25.29a5.7,5.7,0,0,1-5.7-5.7V114.738h29.107A1.882,1.882,0,0,1,188.862,116.618Z" style="fill:#494456"/><path d="M61.255,181.121a14.757,14.757,0,0,0,7.465-7.068,4.223,4.223,0,0,0-.023-3.63c-1.509-2.94-5.908-2.842-7.033-.112a8.876,8.876,0,0,1-3.823,4.037,3.716,3.716,0,0,0-1.727,4.2l.056.2A3.683,3.683,0,0,0,61.255,181.121Z" style="fill:#494456"/><path d="M266.964,157.625h.008a3.991,3.991,0,0,0,.719.068h.009a3.971,3.971,0,0,0,.718-.068h.009c1.826-.339,44.922-8.794,61.182-49.887a63.281,63.281,0,0,0,4.308-23.387V21.036a4,4,0,0,0-4.736-3.932c-.413.077-41.589,7.55-58.731-8.725-.075-.071-.16-.121-.239-.185a3.891,3.891,0,0,0-.319-.247c-.114-.075-.232-.134-.35-.2s-.224-.121-.342-.169a3.937,3.937,0,0,0-.381-.124c-.119-.035-.236-.072-.358-.1s-.258-.035-.388-.047-.251-.026-.377-.026-.251.014-.377.026-.259.022-.388.047-.241.062-.361.1a3.605,3.605,0,0,0-.377.123c-.119.048-.232.111-.347.171a3.781,3.781,0,0,0-.345.193,3.988,3.988,0,0,0-.323.25c-.077.064-.162.113-.236.183-17.108,16.243-58.32,8.8-58.733,8.724a4,4,0,0,0-4.734,3.933V84.351a63.261,63.261,0,0,0,4.308,23.387C222.043,148.831,265.138,157.286,266.964,157.625ZM209.475,25.7c11.54,1.518,41.151,3.823,58.221-9.191,17.07,13.014,46.681,10.71,58.221,9.191V84.351a55.289,55.289,0,0,1-3.748,20.443c-13.508,34.143-48.927,43.532-54.473,44.807-5.544-1.274-40.965-10.663-54.474-44.807a55.308,55.308,0,0,1-3.747-20.443Z" style="fill:#494456"/></svg>