<svg xmlns="http://www.w3.org/2000/svg" id="icons" viewBox="0 0 340 340"><path d="M16.488,227.227V145.834a50.3,50.3,0,0,1,50.3-50.3h0a50.3,50.3,0,0,1,50.3,50.3V235.89Z" style="fill:#72a6ce"/><path d="M84.338,176.373h-35.1s-20.447,4.136-23.2,31.705v18.61h81.513v-18.61C104.785,180.509,84.338,176.373,84.338,176.373Z" style="fill:#ffd6bb"/><path d="M90.161,226.688a146.261,146.261,0,0,1-42.218-23.566c-4.7-3.272-1.84-9.611-1.84-9.611l-7.855-11.266c-5.332,4.538-10.876,12.4-12.219,25.833v18.61H90.161Z" style="fill:#f4a28c"/><path d="M117.083,183.505v76.231H45.274l11.735-42.761S95.107,213.839,117.083,183.505Z" style="fill:#bfd6ef"/><path d="M117.083,259.736V238.9c-4.219-3.666-10.091-7.042-18.307-9.411A148.91,148.91,0,0,1,66,215.438a72.44,72.44,0,0,1-8.986,1.537L45.274,259.736Z" style="fill:#72a6ce"/><path d="M16.488,183.505s33.119,36.834,83.571,55.405c0,0,2.566.991,5.749,2.569a20.365,20.365,0,0,1,11.275,18.257V279.7a50.3,50.3,0,0,1-50.3,50.3h0a50.3,50.3,0,0,1-50.3-50.3Z" style="fill:#bfd6ef"/><path d="M84.338,176.373h-35.1A28.54,28.54,0,0,0,34.8,185.69a41.74,41.74,0,0,0,63.981,0A28.54,28.54,0,0,0,84.338,176.373Z" style="fill:#f4a28c"/><rect x="32.975" y="115.92" width="67.621" height="76.699" rx="33.81" style="fill:#ffd6bb"/><path d="M51.42,162.828l31.362-3.634s5.951,19.009-11.748,21.619C71.034,180.813,53.227,184.883,51.42,162.828Z" style="fill:#ff7676"/><path d="M105.808,241.479c-3.183-1.578-5.749-2.569-5.749-2.569-1.407-.518-2.8-1.055-4.176-1.6a22.6,22.6,0,0,1,2.893,11.866v7.95a85.946,85.946,0,0,0-9.968-4.647A208.478,208.478,0,0,1,69.665,243.4a3.055,3.055,0,0,0-3.447,5c5.785,5.049,12.385,10.476,19.2,15.431a38.1,38.1,0,0,1,11.737,13.434,8.469,8.469,0,0,1,.839,5.267h0c-4.84,29.082-38.652,43.059-62.771,26.105a61.372,61.372,0,0,1-17.975-20.28A50.3,50.3,0,0,0,66.785,330h0a50.306,50.306,0,0,0,47.641-34.176l.04-.117q.335-.995.627-2.008c.027-.092.053-.185.079-.278.178-.63.347-1.264.5-1.9.037-.156.072-.313.108-.469.135-.588.265-1.178.38-1.773.044-.231.082-.464.124-.695.095-.534.189-1.069.267-1.608.047-.322.082-.648.123-.971.058-.464.12-.926.165-1.393s.072-.908.1-1.363c.024-.354.058-.7.075-1.061.04-.822.063-1.649.063-2.481V259.736A20.363,20.363,0,0,0,105.808,241.479Z" style="fill:#72a6ce"/><path d="M34.809,236.642,74,268.9a2.878,2.878,0,0,1-2.733,4.955c-11.888-4.018-29.7-13.031-41.668-32.7A3.5,3.5,0,0,1,34.809,236.642Z" style="fill:#72a6ce"/><path d="M66.785,334a54.359,54.359,0,0,0,54.3-54.3V145.834a54.3,54.3,0,1,0-108.595,0V279.7A54.359,54.359,0,0,0,66.785,334ZM40.309,185.768a37.726,37.726,0,0,0,52.951,0,28.6,28.6,0,0,1,6.9,9.506,85.77,85.77,0,0,1-22.967,12.672,4,4,0,1,0,2.778,7.5A92.932,92.932,0,0,0,107.3,199.766a3.915,3.915,0,0,0,.506-.416c1.79-1.529,3.555-3.164,5.273-4.922v47.2a24.4,24.4,0,0,0-5.5-3.735c-3.309-1.64-5.972-2.673-6.144-2.739-29.731-10.944-53.489-28.534-67.625-40.723A28.349,28.349,0,0,1,40.309,185.768ZM66.785,99.536a46.351,46.351,0,0,1,46.3,46.3v36.321a68.81,68.81,0,0,1-6.709,7.649,36.6,36.6,0,0,0-8.031-10.2,37.582,37.582,0,0,0,6.253-20.793V149.73A37.615,37.615,0,0,0,90.149,120a4,4,0,0,0-4.947,6.287A29.661,29.661,0,0,1,96.6,149.73v9.078a29.811,29.811,0,1,1-59.621,0V149.73a29.84,29.84,0,0,1,29.289-29.8,5.4,5.4,0,0,1,3.147,4.345,2.922,2.922,0,0,1-.658,2.639c-.348.334-1.41,1.348-4.656.2a4,4,0,0,0-2.67,7.542,15.844,15.844,0,0,0,5.293.984A10.558,10.558,0,0,0,77.274,122.8c-1.356-7.226-6.709-10.185-9.67-10.8-.107-.022-.221-.022-.331-.036a4.2,4.2,0,0,0-.507-.049,37.853,37.853,0,0,0-37.791,37.81v9.078a37.574,37.574,0,0,0,6.247,20.784,35.606,35.606,0,0,0-7.565,9.341c-3.468-3.217-5.9-5.686-7.169-7.01V145.834A46.351,46.351,0,0,1,66.785,99.536Zm-46.3,127.69V193.243c12.357,11.794,40.311,35.478,78.127,49.4.025.009,2.453.954,5.416,2.423a16.465,16.465,0,0,1,9.052,14.673v2.408c-8.583-7.863-20.752-12.62-22.822-13.393-15.529-6.331-31.4-15.8-41.99-22.627a4,4,0,1,0-4.336,6.723C54.82,239.87,71.181,249.619,87.3,256.183l.114.044c6.054,2.257,22.21,10,25.67,19.034V279.7a46.3,46.3,0,0,1-92.595,0Z" style="fill:#494456"/><path d="M47.434,163.154c.691,8.448,3.613,14.614,8.683,18.328A19.766,19.766,0,0,0,67.842,185.1a20.764,20.764,0,0,0,3.89-.346c6.047-.917,10.492-3.578,13.211-7.911C89.927,168.9,86.737,158.44,86.6,158a4.008,4.008,0,0,0-4.278-2.779L50.96,158.854A4,4,0,0,0,47.434,163.154Zm32.155.437c.314,2.581.319,6.225-1.421,9-1.456,2.32-3.981,3.716-7.718,4.267-.084.012-.2.034-.28.051-.052.012-5.329,1.093-9.383-1.921-2.375-1.766-3.995-4.67-4.838-8.657Z" style="fill:#494456"/><path d="M35.386,222.348a4,4,0,0,0-.9-5.585l-.741-.54A4,4,0,0,0,29,222.66s.277.205.806.587a4,4,0,0,0,5.585-.9Z" style="fill:#494456"/><circle cx="57.234" cy="147.802" r="4" style="fill:#494456"/><circle cx="76.524" cy="147.802" r="4" style="fill:#494456"/><path d="M250.012,173.474H195.705v36.218H221.12a18.272,18.272,0,0,0,12.193-4.663h0a18.274,18.274,0,0,1,12.193-4.662h4.506Z" style="fill:#ffd6bb"/><path d="M243.549,188.427c-.36,2.731-1.44,4.774-4.195,4.774,0,0-3.631-.468-8.579,3.725-2.009,1.7-4.24,5.183-9.28,5.183h-25.79v7.583H221.12a18.272,18.272,0,0,0,12.193-4.663h0a18.274,18.274,0,0,1,12.193-4.662h4.506V173.474H243.34Z" style="fill:#f4a28c"/><path d="M208.028,209.692c11.04-2.16,11.8-5.448,11.8-5.448V193.509c0-3.1,3.135-6.79,5.385-9.04a5.494,5.494,0,0,0,1.284-5.926c-.141-.348-.286-.578-.424-.6a12.061,12.061,0,0,1-5.68-2.467c-6.833-5.2-15.738-3.667-24.692-1.976v36.218H207.9C207.941,209.713,207.982,209.7,208.028,209.692Z" style="fill:#f4a28c"/><path d="M221.208,263.432a24.3,24.3,0,0,1-24.271-24.27V69.551a7.5,7.5,0,1,1,15,0V239.162a9.271,9.271,0,0,0,18.541,0v-4.909a7.5,7.5,0,0,1,15,0v4.909A24.3,24.3,0,0,1,221.208,263.432Z" style="fill:#9696aa"/><path d="M200.526,202.109h0c0-4.187-3.055-7.582-6.822-7.582H179.212c-3.768,0-6.822,3.4-6.822,7.582h0c0,4.188,3.054,7.583,6.822,7.583H193.7C197.471,209.692,200.526,206.3,200.526,202.109Z" style="fill:#ffd6bb"/><path d="M202.526,186.944h0c0-4.188-3.055-7.583-6.822-7.583H180.212c-3.768,0-6.822,3.4-6.822,7.583h0c0,4.188,3.054,7.583,6.822,7.583H195.7C199.471,194.527,202.526,191.132,202.526,186.944Z" style="fill:#ffd6bb"/><path d="M205.526,171.779h0c0-4.188-3.055-7.583-6.822-7.583H180.212c-3.768,0-6.822,3.4-6.822,7.583h0c0,4.188,3.054,7.582,6.822,7.582H198.7C202.471,179.361,205.526,175.967,205.526,171.779Z" style="fill:#ffd6bb"/><path d="M204.436,10s-72.022,3.187-116.09,60.636a2.223,2.223,0,0,0,1.64,3.576c9.373.492,32.512,3.154,50.495,17.161,0,0,21.156-14.693,63.955-14.693s63.956,14.693,63.956,14.693c17.982-14.007,41.122-16.669,50.494-17.161a2.223,2.223,0,0,0,1.64-3.576C276.459,13.187,204.436,10,204.436,10Z" style="fill:#ffdc6c"/><path d="M194.516,76.961c3.171-.176,6.468-.281,9.92-.281,42.8,0,63.956,14.693,63.956,14.693,17.982-14.007,41.122-16.669,50.494-17.161a2.223,2.223,0,0,0,1.64-3.576c-25.622-33.4-60.69-48.458-85.562-55.212C235.867,28.235,233.737,59.856,194.516,76.961Z" style="fill:#fca742"/><path d="M204.436,10c-44.987,24.165-63.955,81.373-63.955,81.373s21.156-12.645,63.955-12.645,63.956,12.645,63.956,12.645S249.424,34.165,204.436,10Z" style="fill:#fff"/><path d="M188.54,79.343c4.922-.387,10.212-.615,15.9-.615,42.8,0,63.956,12.645,63.956,12.645s-10.609-31.988-34.77-58.229C230.15,48.651,219.306,68.145,188.54,79.343Z" style="fill:#e6e6e6"/><rect x="250.012" y="164.583" width="73.5" height="46.411" style="fill:#728dc1"/><path d="M232.484,177.069a33.2,33.2,0,0,0-2.56-10.994,14,14,0,0,0-12.833-8.116h-9.364a9.99,9.99,0,0,0-9.989,9.99v9.421a5.606,5.606,0,0,0,5.606,5.606h0a9.729,9.729,0,0,0,9.729-9.729h0S218.412,180.023,232.484,177.069Z" style="fill:#ffd6bb"/><path d="M85.855,78.107c.3,0,30.51-.448,52.168,16.422.025.02.054.034.08.053s.026.016.038.025a3.972,3.972,0,0,0,.582.347c.039.02.078.037.118.055a3.974,3.974,0,0,0,.583.209c.036.01.072.023.109.032a4.06,4.06,0,0,0,.719.112h.017a4.06,4.06,0,0,0,.67-.026c.075-.008.148-.022.223-.035a4.113,4.113,0,0,0,.485-.115c.074-.023.147-.043.22-.07a3.979,3.979,0,0,0,.657-.3c.179-.105,16.079-9.278,47.5-11.57.955-.069,1.931-.129,2.915-.186V160.2H180.212c-5.967,0-10.822,5.2-10.822,11.583a12,12,0,0,0,2.66,7.583,12.14,12.14,0,0,0-.468,14.542,11.965,11.965,0,0,0-3.192,8.205c0,6.387,4.855,11.583,10.822,11.583h13.725v25.47a28.271,28.271,0,0,0,56.541,0v-4.909a11.5,11.5,0,0,0-23,0v4.909a5.271,5.271,0,0,1-10.541,0v-25.47h5.183a22.242,22.242,0,0,0,14.861-5.683,14.255,14.255,0,0,1,9.525-3.642h.506v6.626a4,4,0,0,0,4,4h73.5a4,4,0,0,0,0-8h-69.5v-38.41h69.5a4,4,0,0,0,0-8h-73.5a4,4,0,0,0-4,4v4.891H235.127a31.5,31.5,0,0,0-1.551-4.381,17.979,17.979,0,0,0-16.485-10.483h-1.154V91.373a4,4,0,1,0-8,0V154.61h-.21a13.889,13.889,0,0,0-6.79,1.768V82.76c1.151-.02,2.315-.032,3.5-.032,6.4,0,12.308.292,17.721.785,29.227,2.664,44.017,11.2,44.181,11.294a4,4,0,0,0,2.052.566,3.91,3.91,0,0,0,.657-.055c.078-.012.154-.04.231-.057a4.2,4.2,0,0,0,.411-.1c.088-.03.17-.075.256-.112a3.893,3.893,0,0,0,.356-.158c.085-.046.162-.107.244-.159.1-.065.207-.123.3-.2,21.657-16.87,51.864-16.431,52.164-16.422a4,4,0,0,0,3.339-6.337c-23.222-32.251-55.06-48.412-77.68-56.291C224.205,6.956,205.4,6.038,204.613,6c-.118,0-.235,0-.353,0-.789.034-19.592.952-44.06,9.475-22.62,7.879-54.459,24.04-77.68,56.291a4,4,0,0,0,3.335,6.337ZM180.212,168.2h13.546c0,.135-.02.267-.02.4v9.422A9.582,9.582,0,0,0,197.1,185.3a5.4,5.4,0,0,1-.376,3.835,3.878,3.878,0,0,1-2.316,1.389H180.212c-1.53,0-2.822-1.641-2.822-3.583s1.292-3.582,2.822-3.582h4.154a4,4,0,0,0,0-8h-4.154c-1.53,0-2.822-1.641-2.822-3.583S178.682,168.2,180.212,168.2Zm-3.822,33.913c0-1.942,1.292-3.582,2.822-3.582H193.7c1.529,0,2.822,1.64,2.822,3.582s-1.293,3.583-2.822,3.583H179.212C177.682,205.692,176.39,204.052,176.39,202.109Zm44.818,50.323a13.285,13.285,0,0,0,13.27-13.27v-4.909a3.5,3.5,0,0,1,7,0v4.909a20.271,20.271,0,0,1-40.541,0V210.7a11.917,11.917,0,0,0,3.589-8.592,12.038,12.038,0,0,0-2.3-7.113,10.432,10.432,0,0,0,1-1.2,11.36,11.36,0,0,0,2.029-6.3,13.681,13.681,0,0,0,2.681-.659v52.327A13.285,13.285,0,0,0,221.208,252.432ZM201.738,168.6a6,6,0,0,1,5.989-5.989h9.364a9.973,9.973,0,0,1,9.181,5.748,26.059,26.059,0,0,1,1.758,5.848c0,.011.007.02.009.031a3.956,3.956,0,0,0,.149.508c.029.085.046.176.08.258a3.956,3.956,0,0,0,.22.418c.051.09.091.187.148.273a4.094,4.094,0,0,0,.283.348c.068.081.128.171.2.246a4.07,4.07,0,0,0,.409.342c.06.047.113.1.176.146a3.937,3.937,0,0,0,.485.268c.064.032.123.074.188.1a4.112,4.112,0,0,0,.428.139c.107.033.21.076.32.1s.231.027.346.041a3.976,3.976,0,0,0,.452.046c.012,0,.024,0,.036,0h14.05v18.893h-.506a22.24,22.24,0,0,0-14.862,5.683,14.257,14.257,0,0,1-9.524,3.642h-5.183V180.584a22.932,22.932,0,0,0,6.17,1.655,4,4,0,0,0,1.018-7.935c-4.886-.627-6.888-2.861-6.91-2.882a3.881,3.881,0,0,0-4.418-1.414,4.046,4.046,0,0,0-2.724,3.89,5.735,5.735,0,0,1-5.729,5.729,1.607,1.607,0,0,1-1.606-1.606ZM187.349,16.442c-20.21,15.811-33.928,37.46-42.364,54.349a4,4,0,1,0,7.157,3.575c9.762-19.543,26.886-45.742,53.207-60.3,8.9.7,70.266,7.235,109.928,56.366-10.3.867-28.831,3.958-44.952,14.649-4.528-11.47-17.481-40.126-41.195-62.127a4,4,0,0,0-5.441,5.864c19.734,18.309,31.846,42.136,37.364,54.867-25.084-11.911-87.663-12.74-120.2,2.968C124.23,74.674,104.392,71.345,93.6,70.436,122.954,34.083,164.292,21.045,187.349,16.442Z" style="fill:#494456"/><circle cx="267.952" cy="179.36" r="4" style="fill:#494456"/><circle cx="282.421" cy="179.36" r="4" style="fill:#494456"/></svg>