<svg xmlns="http://www.w3.org/2000/svg" id="icons" viewBox="0 0 340 340"><path d="M108.721,273.249h4.972a20.83,20.83,0,0,1,20.83,20.83V330H119.8V297.055a10.2,10.2,0,0,0-10.2-10.2h-.884a6.8,6.8,0,0,1-6.8-6.8h0A6.8,6.8,0,0,1,108.721,273.249Z" style="fill:#6f6f7f"/><path d="M96.708,201.462s5.922,12.522-2.39,27.487a36.747,36.747,0,0,1-4.567,6.323c-2.868,3.272-9.322,12.34-9.322,27.692v28.673H35.413V248.843c0-24.955,14.705-47.833,37.748-57.411q.953-.4,1.938-.774Z" style="fill:#bfd6ef"/><rect x="35.413" y="291.637" width="45.016" height="38.363" style="fill:#6f6f7f"/><path d="M27.414,261.717h8a0,0,0,0,1,0,0v23.063a0,0,0,0,1,0,0h-8a11.532,11.532,0,0,1-11.532-11.532v0A11.532,11.532,0,0,1,27.414,261.717Z" style="fill:#ffd6bb"/><path d="M93.383,255.692v21.586l11.658-.024c6.082,0,10.99-4.468,10.99-10.55h0a11.012,11.012,0,0,0-11.012-11.012Z" style="fill:#ffd6bb"/><path d="M96.327,224.734l.016-.041c.25-.627.471-1.244.677-1.857.031-.093.063-.186.093-.278.2-.631.392-1.254.553-1.868h0a30.252,30.252,0,0,0-.958-19.227L75.1,190.658q-.986.378-1.938.774a60.06,60.06,0,0,0-10.875,5.911c-1.321,5.635-1.321,10.543,11.71,22.206a10.81,10.81,0,0,1,2.066,13.693c-3.165,5.205-7.9,14.866-18.141,18.513l-1.968-10.9a1.8,1.8,0,0,0-3.563.083l-2.758,20.8a26.329,26.329,0,0,0,.312,9.144c1.217,5.508,4.7,12.3,14.467,12.392h.958v8.362h15.06V262.964c0-15.352,6.454-24.42,9.322-27.692a36.8,36.8,0,0,0,4.567-6.323c.357-.643.679-1.279.985-1.912q.1-.215.2-.427C95.8,225.979,96.079,225.353,96.327,224.734Z" style="fill:#72a6ce"/><path d="M75.93,255.692v-26.18A11.012,11.012,0,0,0,64.918,218.5h0a11.012,11.012,0,0,0-11.012,11.012V260.99a16.29,16.29,0,0,0,16.647,16.288h22.83V255.692Z" style="fill:#bfd6ef"/><path d="M125.277,163.975v13.242A29.434,29.434,0,0,1,95.844,206.65h0a29.434,29.434,0,0,1-29.433-29.433v-29.4a29.433,29.433,0,0,1,29.433-29.432h0a29.433,29.433,0,0,1,29.433,29.432Z" style="fill:#ffd6bb"/><path d="M80.429,178.2a14.013,14.013,0,0,0,6.428,12.357,16.329,16.329,0,0,0,17.974,0,14.013,14.013,0,0,0,6.428-12.357Z" style="fill:#ff7676"/><path d="M68.918,135.925s-1.185,6.224,1.548,11.332a10.11,10.11,0,0,1,.023,9.559c-2.033,3.817-4.078,10.012-4.078,19.492a17.165,17.165,0,0,1-8.051-1.858,14.793,14.793,0,0,1-2.214-25.009c.07-.052.141-.1.213-.155C56.359,149.286,55.7,138.564,68.918,135.925Z" style="fill:#e9f4ff"/><path d="M93.383,273.249h-21.7c-13.349,0-17.077-7.938-17.35-8.561a16.722,16.722,0,0,0,16.3,13.028H93.383Z" style="fill:#72a6ce"/><path d="M35.413,276.453H25.2c-8.146,0-9.232-3.323-9.293-3.617-.005.139-.021.274-.021.413a11.532,11.532,0,0,0,11.532,11.532h8Z" style="fill:#f4a28c"/><path d="M125.276,163.975V147.814a29.434,29.434,0,0,0-18.561-27.35c3.389,2.9,8.3,9.317,8.3,22.14v38.677a25.456,25.456,0,0,1-3.555,13.23c-3.448,5.682-10.167,11.6-23.157,11.16a29.46,29.46,0,0,0,7.539.979h0a29.433,29.433,0,0,0,29.432-29.433Z" style="fill:#fcb7a2"/><path d="M122.7,135.925s1.186,6.224-1.548,11.332a10.11,10.11,0,0,0-.022,9.559c2.032,3.817,4.077,10.012,4.077,19.492a17.165,17.165,0,0,0,8.051-1.858,14.793,14.793,0,0,0,2.214-25.009c-.07-.052-.141-.1-.213-.155C135.254,149.286,135.913,138.564,122.7,135.925Z" style="fill:#d3e0ea"/><path d="M84.644,193.891a20.464,20.464,0,0,0,22.4,0,18,18,0,0,0,8.215-15.689,4,4,0,0,0-4-4H80.429a4,4,0,0,0-4,4A18,18,0,0,0,84.644,193.891ZM106.637,182.2a9.8,9.8,0,0,1-4.019,5.025,12.377,12.377,0,0,1-13.548,0,9.8,9.8,0,0,1-4.019-5.025Z" style="fill:#494456"/><path d="M27.414,288.781h4V330a4,4,0,0,0,8,0V295.638H76.429V330a4,4,0,0,0,8,0V281.716H98.06a10.848,10.848,0,0,0,5.228,7.679h0a10.81,10.81,0,0,0,5.432,1.463h.884a6.2,6.2,0,0,1,6.2,6.2V330a4,4,0,0,0,8,0V297.055a14.213,14.213,0,0,0-14.2-14.2h-.884a2.771,2.771,0,0,1-1.407-.376,2.8,2.8,0,0,1-.882-.837,14.97,14.97,0,0,0,9.15-4.288,16.885,16.885,0,0,1,14.941,16.722V330a4,4,0,0,0,8,0V294.079a24.921,24.921,0,0,0-18.864-24.1,14.975,14.975,0,0,0-14.64-18.292h-19.2a34.145,34.145,0,0,1,6.937-13.783,40.553,40.553,0,0,0,5.057-7.018,37.311,37.311,0,0,0,4.851-20.944,33.5,33.5,0,0,0,26.487-29.965,21.53,21.53,0,0,0,5.9-1.961,18.8,18.8,0,0,0,4.122-30.709c-.555-4.907-3.844-12.055-13.623-14.811a33.42,33.42,0,0,0-59.411-.023c-9.844,2.739-13.152,9.912-13.709,14.833a18.8,18.8,0,0,0,4.122,30.71,21.528,21.528,0,0,0,5.979,1.973,33.142,33.142,0,0,0,2.767,10.8,66.363,66.363,0,0,0-33.89,58.051v8.875h-4a15.532,15.532,0,0,0,0,31.063ZM112.031,266.7a7.02,7.02,0,0,1-7.012,7.012H97.383V259.692h7.636A7.02,7.02,0,0,1,112.031,266.7Zm-22.648,7.012H70.632A12.741,12.741,0,0,1,57.905,260.99V229.512a7.013,7.013,0,0,1,14.025,0v26.18a4,4,0,0,0,4,4H89.383Zm41.879-124.675a4,4,0,0,0,1.657,3.493l.164.119a10.6,10.6,0,0,1,4.238,9.49,10.732,10.732,0,0,1-5.871,8.737,13.222,13.222,0,0,1-2.4.927,41.839,41.839,0,0,0-4.4-16.871,6.139,6.139,0,0,1,.019-5.792,20,20,0,0,0,2.171-7.5A8.417,8.417,0,0,1,131.262,149.041ZM95.844,122.382A25.455,25.455,0,0,1,118.8,136.9c.228,1.476.417,5.484-1.183,8.474a14.125,14.125,0,0,0-.026,13.326c1.646,3.091,3.608,8.656,3.608,17.612a3.989,3.989,0,0,0,.075.77v.139a25.433,25.433,0,0,1-50.866,0v-.909c0-8.957,1.962-14.521,3.608-17.611a14.127,14.127,0,0,0-.026-13.327c-1.662-3.107-1.362-7-1.2-8.278A25.454,25.454,0,0,1,95.844,122.382ZM54.292,162.143a10.593,10.593,0,0,1,4.225-9.481l.177-.128a4,4,0,0,0,1.657-3.493,8.443,8.443,0,0,1,4.418-7.383,20,20,0,0,0,2.17,7.486,6.139,6.139,0,0,1,.019,5.792,41.856,41.856,0,0,0-4.4,16.872,13.362,13.362,0,0,1-2.4-.928A10.732,10.732,0,0,1,54.292,162.143Zm-14.879,86.7a58.315,58.315,0,0,1,30.006-51.182A33.389,33.389,0,0,0,94.693,210.62a29.462,29.462,0,0,1-3.872,16.387,32.7,32.7,0,0,1-4.078,5.628,39.688,39.688,0,0,0-6.813,11.354V229.512a15.013,15.013,0,0,0-30.025,0V260.99a20.75,20.75,0,0,0,20.727,20.726h5.8v5.922H39.413V248.843Zm-12,16.875h4v15.063h-4a7.532,7.532,0,0,1,0-15.063Z" style="fill:#494456"/><circle cx="86.605" cy="160.75" r="4" style="fill:#494456"/><circle cx="105.085" cy="160.75" r="4" style="fill:#494456"/><path d="M250.618,173.474H196.311v36.218h25.415a18.269,18.269,0,0,0,12.192-4.663h0a18.277,18.277,0,0,1,12.193-4.662h4.507Z" style="fill:#ffd6bb"/><path d="M244.154,188.427c-.359,2.731-1.439,4.774-4.194,4.774,0,0-3.631-.468-8.58,3.725-2.008,1.7-4.239,5.183-9.28,5.183H196.311v7.583h25.415a18.269,18.269,0,0,0,12.192-4.663h0a18.273,18.273,0,0,1,12.192-4.662h4.507V173.474h-6.672Z" style="fill:#f4a28c"/><path d="M208.634,209.692c11.04-2.16,11.8-5.448,11.8-5.448V193.509c0-3.1,3.135-6.79,5.384-9.04a5.494,5.494,0,0,0,1.285-5.926c-.142-.348-.286-.578-.424-.6A12.064,12.064,0,0,1,221,175.48c-6.832-5.2-15.737-3.667-24.691-1.976v36.218H208.5C208.547,209.713,208.588,209.7,208.634,209.692Z" style="fill:#f4a28c"/><path d="M221.813,263.432a24.3,24.3,0,0,1-24.271-24.27V69.551a7.5,7.5,0,0,1,15,0V239.162a9.271,9.271,0,0,0,18.542,0v-4.909a7.5,7.5,0,0,1,15,0v4.909A24.3,24.3,0,0,1,221.813,263.432Z" style="fill:#9696aa"/><path d="M201.132,202.109h0c0-4.187-3.055-7.582-6.823-7.582H179.818c-3.768,0-6.822,3.4-6.822,7.582h0c0,4.188,3.054,7.583,6.822,7.583h14.491C198.077,209.692,201.132,206.3,201.132,202.109Z" style="fill:#ffd6bb"/><path d="M203.132,186.944h0c0-4.188-3.055-7.583-6.823-7.583H180.818c-3.768,0-6.822,3.4-6.822,7.583h0c0,4.188,3.054,7.583,6.822,7.583h15.491C200.077,194.527,203.132,191.132,203.132,186.944Z" style="fill:#ffd6bb"/><path d="M206.132,171.779h0c0-4.188-3.055-7.583-6.823-7.583H180.818c-3.768,0-6.822,3.4-6.822,7.583h0c0,4.188,3.054,7.582,6.822,7.582h18.491C203.077,179.361,206.132,175.967,206.132,171.779Z" style="fill:#ffd6bb"/><path d="M205.042,10S133.02,13.187,88.952,70.636a2.223,2.223,0,0,0,1.64,3.576c9.372.492,32.512,3.154,50.495,17.161,0,0,21.156-14.693,63.955-14.693S269,91.373,269,91.373c17.983-14.007,41.123-16.669,50.5-17.161a2.223,2.223,0,0,0,1.64-3.576C277.065,13.187,205.042,10,205.042,10Z" style="fill:#ffdc6c"/><path d="M195.122,76.961c3.171-.176,6.467-.281,9.92-.281,42.8,0,63.955,14.693,63.955,14.693,17.983-14.007,41.123-16.669,50.5-17.161a2.223,2.223,0,0,0,1.64-3.576c-25.622-33.4-60.691-48.458-85.562-55.212C236.473,28.235,234.343,59.856,195.122,76.961Z" style="fill:#fca742"/><path d="M205.042,10c-44.987,24.165-63.955,81.373-63.955,81.373s21.156-12.645,63.955-12.645S269,91.373,269,91.373,250.03,34.165,205.042,10Z" style="fill:#fff"/><path d="M189.146,79.343c4.921-.387,10.212-.615,15.9-.615,42.8,0,63.955,12.645,63.955,12.645s-10.608-31.988-34.769-58.229C230.756,48.651,219.912,68.145,189.146,79.343Z" style="fill:#e6e6e6"/><rect x="250.618" y="164.583" width="73.5" height="46.411" style="fill:#728dc1"/><path d="M233.089,177.069a33.212,33.212,0,0,0-2.559-10.994,14,14,0,0,0-12.833-8.116h-9.364a9.99,9.99,0,0,0-9.989,9.99v9.421a5.605,5.605,0,0,0,5.606,5.606h0a9.728,9.728,0,0,0,9.728-9.729h0S219.017,180.023,233.089,177.069Z" style="fill:#ffd6bb"/><path d="M86.461,78.107c.3,0,30.51-.448,52.168,16.422.025.02.054.034.079.053l.039.025a3.869,3.869,0,0,0,.582.347c.039.02.078.037.118.055a3.974,3.974,0,0,0,.583.209c.036.01.072.023.108.032a4.088,4.088,0,0,0,.719.112h.018a4.06,4.06,0,0,0,.67-.026c.074-.008.148-.022.222-.035a4.083,4.083,0,0,0,.486-.115c.074-.023.147-.043.22-.07a3.979,3.979,0,0,0,.657-.3c.179-.105,16.079-9.278,47.5-11.57.954-.069,1.931-.129,2.914-.186V160.2H180.818c-5.968,0-10.823,5.2-10.823,11.583a12.006,12.006,0,0,0,2.661,7.583,12.136,12.136,0,0,0-.468,14.542A11.966,11.966,0,0,0,169,202.109c0,6.387,4.855,11.583,10.823,11.583h13.724v25.47a28.271,28.271,0,0,0,56.542,0v-4.909a11.5,11.5,0,0,0-23,0v4.909a5.271,5.271,0,0,1-10.542,0v-25.47h5.183a22.242,22.242,0,0,0,14.862-5.683,14.255,14.255,0,0,1,9.525-3.642h.5v6.626a4,4,0,0,0,4,4h73.5a4,4,0,0,0,0-8h-69.5v-38.41h69.5a4,4,0,0,0,0-8h-73.5a4,4,0,0,0-4,4v4.891H235.733a31.5,31.5,0,0,0-1.551-4.381A17.98,17.98,0,0,0,217.7,154.61h-1.155V91.373a4,4,0,0,0-8,0V154.61h-.209a13.9,13.9,0,0,0-6.791,1.768V82.76c1.151-.02,2.315-.032,3.5-.032,6.4,0,12.309.292,17.721.785,29.227,2.664,44.017,11.2,44.182,11.294a4,4,0,0,0,2.052.566,3.91,3.91,0,0,0,.657-.055c.078-.012.153-.04.231-.057a4.2,4.2,0,0,0,.411-.1c.087-.03.17-.075.256-.112a3.893,3.893,0,0,0,.356-.158c.084-.046.162-.107.244-.159.1-.065.207-.123.3-.2C293.113,77.659,323.32,78.1,323.62,78.107a4,4,0,0,0,3.338-6.337C303.737,39.519,271.9,23.358,249.279,15.479,224.81,6.956,206.008,6.038,205.219,6c-.118,0-.235,0-.353,0-.789.034-19.592.952-44.06,9.475-22.621,7.879-54.459,24.04-77.68,56.291a4,4,0,0,0,3.335,6.337ZM180.818,168.2h13.546c0,.135-.02.267-.02.4v9.422A9.578,9.578,0,0,0,197.7,185.3a5.4,5.4,0,0,1-.377,3.835,3.874,3.874,0,0,1-2.315,1.389H180.818c-1.53,0-2.823-1.641-2.823-3.583s1.293-3.582,2.823-3.582h4.153a4,4,0,0,0,0-8h-4.153c-1.53,0-2.823-1.641-2.823-3.583S179.288,168.2,180.818,168.2ZM177,202.109c0-1.942,1.293-3.582,2.823-3.582h14.491c1.53,0,2.823,1.64,2.823,3.582s-1.293,3.583-2.823,3.583H179.818C178.288,205.692,177,204.052,177,202.109Zm44.818,50.323a13.285,13.285,0,0,0,13.271-13.27v-4.909a3.5,3.5,0,0,1,7,0v4.909a20.271,20.271,0,0,1-40.542,0V210.7a12.108,12.108,0,0,0,1.29-15.7,10.542,10.542,0,0,0,1-1.2,11.36,11.36,0,0,0,2.029-6.3,13.671,13.671,0,0,0,2.68-.659v52.327A13.285,13.285,0,0,0,221.813,252.432ZM202.344,168.6a6,6,0,0,1,5.989-5.989H217.7a9.973,9.973,0,0,1,9.181,5.748,26.059,26.059,0,0,1,1.758,5.848c0,.011.007.02.009.031a3.8,3.8,0,0,0,.149.508c.028.085.046.176.08.258a3.956,3.956,0,0,0,.22.418c.051.09.091.187.148.273a4.082,4.082,0,0,0,.282.348c.069.081.129.171.2.246a4.07,4.07,0,0,0,.409.342c.06.047.113.1.176.146a3.937,3.937,0,0,0,.485.268c.064.032.122.074.188.1a4.094,4.094,0,0,0,.427.139c.108.033.211.076.321.1s.23.027.346.041a3.976,3.976,0,0,0,.452.046c.012,0,.024,0,.036,0h14.049v18.893h-.5a22.243,22.243,0,0,0-14.863,5.683,14.253,14.253,0,0,1-9.524,3.642h-5.183V180.584a22.94,22.94,0,0,0,6.171,1.655,4,4,0,0,0,1.018-7.935c-4.886-.627-6.888-2.861-6.91-2.882a3.881,3.881,0,0,0-4.418-1.414,4.046,4.046,0,0,0-2.724,3.89,5.735,5.735,0,0,1-5.729,5.729,1.607,1.607,0,0,1-1.606-1.606ZM187.955,16.442c-20.21,15.811-33.929,37.46-42.364,54.349a4,4,0,1,0,7.157,3.575c9.761-19.543,26.886-45.742,53.207-60.3,8.9.7,70.266,7.235,109.928,56.366-10.3.867-28.831,3.958-44.952,14.649-4.529-11.47-17.482-40.126-41.195-62.127a4,4,0,1,0-5.441,5.864c19.734,18.309,31.845,42.136,37.364,54.867-25.084-11.911-87.663-12.74-120.2,2.968C124.836,74.674,105,71.345,94.2,70.436,123.56,34.083,164.9,21.045,187.955,16.442Z" style="fill:#494456"/><circle cx="268.557" cy="179.36" r="4" style="fill:#494456"/><circle cx="283.027" cy="179.36" r="4" style="fill:#494456"/></svg>